<svg width="1600" height="600" viewBox="0 0 1600 600" fill="none" xmlns="http://www.w3.org/2000/svg">
  <!-- Ground Horizon Line -->
  <line x1="50" y1="520" x2="1550" y2="520" stroke="#071A44" stroke-width="2" stroke-linecap="round" />
  
  <!-- Grid/Blueprint lines background (subtle secondary) -->
  <path d="M 50 100 L 1550 100 M 50 200 L 1550 200 M 50 300 L 1550 300 M 50 400 L 1550 400 M 50 500 L 1550 500" stroke="#071A44" stroke-width="0.5" stroke-opacity="0.1" stroke-dasharray="4 4" />
  <path d="M 200 50 L 200 520 M 400 50 L 400 520 M 600 50 L 600 520 M 800 50 L 800 520 M 1000 50 L 1000 520 M 1200 50 L 1200 520 M 1400 50 L 1400 520" stroke="#071A44" stroke-width="0.5" stroke-opacity="0.1" stroke-dasharray="4 4" />

  <!-- Stylized Academic Trees (Left) -->
  <!-- Tree 1 -->
  <path d="M100 520 L100 440" stroke="#071A44" stroke-width="1.5" />
  <circle cx="100" cy="420" r="30" stroke="#071A44" stroke-width="1" fill="#FFFFFF" />
  <circle cx="100" cy="420" r="22" stroke="#071A44" stroke-width="0.75" stroke-dasharray="2 2" />
  <!-- Tree 2 -->
  <path d="M150 520 L150 460" stroke="#071A44" stroke-width="1.5" />
  <circle cx="150" cy="440" r="25" stroke="#071A44" stroke-width="1" fill="#FFFFFF" />
  <!-- Tree 3 -->
  <path d="M220 520 L220 430" stroke="#071A44" stroke-width="1.5" />
  <circle cx="220" cy="410" r="35" stroke="#071A44" stroke-width="1" fill="#FFFFFF" />

  <!-- LEFT wing building (Modern academic center) -->
  <rect x="300" y="320" width="280" height="200" fill="#FFFFFF" stroke="#071A44" stroke-width="1.5" />
  <rect x="320" y="290" width="100" height="30" fill="#FFFFFF" stroke="#071A44" stroke-width="1" />
  <line x1="300" y1="380" x2="580" y2="380" stroke="#071A44" stroke-width="1" />
  <line x1="300" y1="440" x2="580" y2="440" stroke="#071A44" stroke-width="1" />
  
  <!-- Left building windows (Blueprint style) -->
  <!-- Row 1 -->
  <rect x="330" y="340" width="20" height="25" stroke="#071A44" stroke-width="1" />
  <rect x="370" y="340" width="20" height="25" stroke="#071A44" stroke-width="1" />
  <rect x="410" y="340" width="20" height="25" stroke="#071A44" stroke-width="1" />
  <rect x="450" y="340" width="20" height="25" stroke="#071A44" stroke-width="1" />
  <rect x="490" y="340" width="20" height="25" stroke="#071A44" stroke-width="1" />
  <rect x="530" y="340" width="20" height="25" stroke="#071A44" stroke-width="1" />
  <!-- Row 2 -->
  <rect x="330" y="400" width="20" height="25" stroke="#071A44" stroke-width="1" />
  <rect x="370" y="400" width="20" height="25" stroke="#071A44" stroke-width="1" />
  <rect x="410" y="400" width="20" height="25" stroke="#071A44" stroke-width="1" />
  <rect x="450" y="400" width="20" height="25" stroke="#071A44" stroke-width="1" />
  <rect x="490" y="400" width="20" height="25" stroke="#071A44" stroke-width="1" />
  <rect x="530" y="400" width="20" height="25" stroke="#071A44" stroke-width="1" />

  <!-- MIDDLE MAIN BUILDING (Classical Heritage Dome and Pillars) -->
  <!-- Side wings connecting -->
  <rect x="580" y="360" width="440" height="160" fill="#FFFFFF" stroke="#071A44" stroke-width="1.5" />
  <line x1="580" y1="420" x2="1020" y2="420" stroke="#071A44" stroke-width="1" />

  <!-- Main Central Portico -->
  <rect x="700" y="240" width="200" height="280" fill="#FFFFFF" stroke="#071A44" stroke-width="2" />
  <!-- Pediment (Triangle roof) -->
  <path d="M700 240 L800 160 L900 240 Z" fill="#FFFFFF" stroke="#071A44" stroke-width="2" />
  <!-- Pediment inner design -->
  <polygon points="720,230 800,180 880,230" fill="none" stroke="#071A44" stroke-width="1" />
  
  <!-- Huge Dome above center -->
  <path d="M720 160 C720 70, 880 70, 880 160" fill="#FFFFFF" stroke="#071A44" stroke-width="1.5" />
  <rect x="795" y="60" width="10" height="20" fill="#FFFFFF" stroke="#071A44" stroke-width="1" />
  <line x1="800" y1="60" x2="800" y2="20" stroke="#071A44" stroke-width="2" /> <!-- Spire -->

  <!-- Dome architectural segment lines -->
  <path d="M750 120 C770 90, 830 90, 850 120" stroke="#071A44" stroke-width="0.75" />
  <line x1="800" y1="70" x2="800" y2="160" stroke="#071A44" stroke-width="0.75" />
  <path d="M760 160 C760 110, 800 90, 800 90" stroke="#071A44" stroke-width="0.5" />
  <path d="M840 160 C840 110, 800 90, 800 90" stroke="#071A44" stroke-width="0.5" />

  <!-- Classical Pillars -->
  <!-- Pillar 1 -->
  <rect x="725" y="280" width="15" height="240" fill="#FFFFFF" stroke="#071A44" stroke-width="1" />
  <rect x="720" y="275" width="25" height="10" fill="#FFFFFF" stroke="#071A44" stroke-width="1" />
  <rect x="720" y="515" width="25" height="10" fill="#FFFFFF" stroke="#071A44" stroke-width="1" />
  <!-- Pillar 2 -->
  <rect x="775" y="280" width="15" height="240" fill="#FFFFFF" stroke="#071A44" stroke-width="1" />
  <rect x="770" y="275" width="25" height="10" fill="#FFFFFF" stroke="#071A44" stroke-width="1" />
  <rect x="770" y="515" width="25" height="10" fill="#FFFFFF" stroke="#071A44" stroke-width="1" />
  <!-- Pillar 3 -->
  <rect x="810" y="280" width="15" height="240" fill="#FFFFFF" stroke="#071A44" stroke-width="1" />
  <rect x="805" y="275" width="25" height="10" fill="#FFFFFF" stroke="#071A44" stroke-width="1" />
  <rect x="805" y="515" width="25" height="10" fill="#FFFFFF" stroke="#071A44" stroke-width="1" />
  <!-- Pillar 4 -->
  <rect x="860" y="280" width="15" height="240" fill="#FFFFFF" stroke="#071A44" stroke-width="1" />
  <rect x="855" y="275" width="25" height="10" fill="#FFFFFF" stroke="#071A44" stroke-width="1" />
  <rect x="855" y="515" width="25" height="10" fill="#FFFFFF" stroke="#071A44" stroke-width="1" />

  <!-- Archway/Door in central portico -->
  <path d="M780 520 L780 430 C780 410, 820 410, 820 430 L820 520 Z" fill="#FFFFFF" stroke="#071A44" stroke-width="1.5" />
  <circle cx="800" cy="380" r="10" stroke="#071A44" stroke-width="1" />

  <!-- Middle wing windows -->
  <rect x="610" y="380" width="15" height="30" stroke="#071A44" stroke-width="0.75" />
  <rect x="640" y="380" width="15" height="30" stroke="#071A44" stroke-width="0.75" />
  <rect x="670" y="380" width="15" height="30" stroke="#071A44" stroke-width="0.75" />
  <rect x="910" y="380" width="15" height="30" stroke="#071A44" stroke-width="0.75" />
  <rect x="940" y="380" width="15" height="30" stroke="#071A44" stroke-width="0.75" />
  <rect x="970" y="380" width="15" height="30" stroke="#071A44" stroke-width="0.75" />

  <rect x="610" y="440" width="15" height="30" stroke="#071A44" stroke-width="0.75" />
  <rect x="640" y="440" width="15" height="30" stroke="#071A44" stroke-width="0.75" />
  <rect x="670" y="440" width="15" height="30" stroke="#071A44" stroke-width="0.75" />
  <rect x="910" y="440" width="15" height="30" stroke="#071A44" stroke-width="0.75" />
  <rect x="940" y="440" width="15" height="30" stroke="#071A44" stroke-width="0.75" />
  <rect x="970" y="440" width="15" height="30" stroke="#071A44" stroke-width="0.75" />

  <!-- RIGHT wing building (Clock tower & Library facade) -->
  <rect x="1020" y="280" width="180" height="240" fill="#FFFFFF" stroke="#071A44" stroke-width="1.5" />
  <rect x="1080" y="120" width="60" height="160" fill="#FFFFFF" stroke="#071A44" stroke-width="1.5" />
  <!-- Clock Tower top pyramid -->
  <path d="M1080 120 L1110 70 L1140 120 Z" fill="#FFFFFF" stroke="#071A44" stroke-width="1.5" />
  <!-- Clock Circle -->
  <circle cx="1110" cy="160" r="18" stroke="#071A44" stroke-width="1.5" fill="#FFFFFF" />
  <line x1="1110" y1="160" x2="1110" y2="148" stroke="#071A44" stroke-width="1.5" stroke-linecap="round" />
  <line x1="1110" y1="160" x2="1120" y2="160" stroke="#071A44" stroke-width="1" stroke-linecap="round" />

  <!-- Tower windows -->
  <rect x="1095" y="210" width="10" height="25" rx="5" stroke="#071A44" stroke-width="1" />
  <rect x="1115" y="210" width="10" height="25" rx="5" stroke="#071A44" stroke-width="1" />

  <!-- Library facade columns -->
  <line x1="1020" y1="340" x2="1200" y2="340" stroke="#071A44" stroke-width="1" />
  <line x1="1020" y1="400" x2="1200" y2="400" stroke="#071A44" stroke-width="1" />
  <line x1="1020" y1="460" x2="1200" y2="460" stroke="#071A44" stroke-width="1" />

  <!-- Library vertical structure line segments -->
  <line x1="1050" y1="280" x2="1050" y2="520" stroke="#071A44" stroke-width="0.5" stroke-dasharray="2 2" />
  <line x1="1170" y1="280" x2="1170" y2="520" stroke="#071A44" stroke-width="0.5" stroke-dasharray="2 2" />

  <!-- Library arched windows -->
  <path d="M1040 330 L1040 310 C1040 300, 1060 300, 1060 310 L1060 330 Z" stroke="#071A44" stroke-width="1" />
  <path d="M1140 330 L1140 310 C1140 300, 1160 300, 1160 310 L1160 330 Z" stroke="#071A44" stroke-width="1" />
  <path d="M1040 390 L1040 370 C1040 360, 1060 360, 1060 370 L1060 390 Z" stroke="#071A44" stroke-width="1" />
  <path d="M1140 390 L1140 370 C1140 360, 1160 360, 1160 370 L1160 390 Z" stroke="#071A44" stroke-width="1" />

  <!-- Stylized Academic Trees (Right) -->
  <!-- Tree 4 -->
  <path d="M1250 520 L1250 450" stroke="#071A44" stroke-width="1.5" />
  <circle cx="1250" cy="430" r="28" stroke="#071A44" stroke-width="1" fill="#FFFFFF" />
  <!-- Tree 5 -->
  <path d="M1320 520 L1320 420" stroke="#071A44" stroke-width="1.5" />
  <circle cx="1320" cy="390" r="38" stroke="#071A44" stroke-width="1" fill="#FFFFFF" />
  <circle cx="1320" cy="390" r="28" stroke="#071A44" stroke-width="0.75" stroke-dasharray="2 2" />
  <!-- Tree 6 -->
  <path d="M1380 520 L1380 460" stroke="#071A44" stroke-width="1.5" />
  <circle cx="1380" cy="440" r="22" stroke="#071A44" stroke-width="1" fill="#FFFFFF" />

  <!-- Pathways & Perspective Lines at bottom -->
  <line x1="720" y1="520" x2="600" y2="580" stroke="#071A44" stroke-width="1" stroke-dasharray="4 4" />
  <line x1="880" y1="520" x2="1000" y2="580" stroke="#071A44" stroke-width="1" stroke-dasharray="4 4" />
  <line x1="800" y1="520" x2="800" y2="590" stroke="#071A44" stroke-width="1.5" />
  
  <line x1="450" y1="520" x2="350" y2="570" stroke="#071A44" stroke-width="0.75" stroke-dasharray="3 3" />
  <line x1="1150" y1="520" x2="1250" y2="570" stroke="#071A44" stroke-width="0.75" stroke-dasharray="3 3" />
</svg>
